# xmcd CD database file
#
# Track frame offsets:
#	183
#	18940
#	39575
#	79810
#	92418
#	102253
#	157190
#	209993
#	223853
#	254943
#	290835
#	294885
#
# Disc length: 4299 seconds
#
# Revision: 1
# Processed by: cddbd v1.5.1PL0 Copyright (c) Steve Scherf et al.
# Submitted via: CDex 1.51
#
DISCID=bc10c90c
DTITLE=Dzem - Wehikul Czasu - Spodek '92, vol. 2
DYEAR=1992
DGENRE=Blues
TTITLE0=Joza's Silesian Sound
TTITLE1=Jak malowany ptak
TTITLE2=List do M.
TTITLE3=Smiech czy lzy
TTITLE4=Letni spacer z Agnieszka
TTITLE5=Naiwne pytania
TTITLE6=Jesiony
TTITLE7=Kaczor, cos ty zrobil
TTITLE8=Czerwony jak cegla
TTITLE9=Czarny chleb
TTITLE10=Pozegnanie
TTITLE11=Harley moj
EXTD=YEAR: 1992
EXTT0=
EXTT1=
EXTT2=
EXTT3=
EXTT4=
EXTT5=
EXTT6=
EXTT7=
EXTT8=
EXTT9=
EXTT10=
EXTT11=
PLAYORDER=
